<?xml version="1.0" encoding="UTF-8"?>
<!DOCTYPE svg PUBLIC "-//W3C//DTD SVG 1.1//EN" "http://www.w3.org/Graphics/SVG/1.1/DTD/svg11.dtd">
<svg xmlns="http://www.w3.org/2000/svg" version="1.1" width="2000px" height="1500px" style="shape-rendering:geometricPrecision; text-rendering:geometricPrecision; image-rendering:optimizeQuality; fill-rule:evenodd; clip-rule:evenodd" xmlns:xlink="http://www.w3.org/1999/xlink">
<g><path style="opacity:1" fill="#fefefe" d="M -0.5,-0.5 C 666.167,-0.5 1332.83,-0.5 1999.5,-0.5C 1999.5,499.5 1999.5,999.5 1999.5,1499.5C 1332.83,1499.5 666.167,1499.5 -0.5,1499.5C -0.5,999.5 -0.5,499.5 -0.5,-0.5 Z"/></g>
<g><path style="opacity:1" fill="#d2d8c8" d="M 1450.5,647.5 C 1510.89,647.011 1571.23,647.511 1631.5,649C 1635.79,654.357 1635.45,659.357 1630.5,664C 1626.5,664.333 1622.5,664.667 1618.5,665C 1642.5,689 1666.5,713 1690.5,737C 1705.58,730.193 1720.25,731.193 1734.5,740C 1753.57,760.613 1752.91,780.613 1732.5,800C 1711.59,811.589 1693.76,808.089 1679,789.5C 1673.35,779.422 1672.01,768.756 1675,757.5C 1676.91,754.702 1677.91,751.702 1678,748.5C 1650.17,720.667 1622.33,692.833 1594.5,665C 1579.17,664.5 1563.84,664.333 1548.5,664.5C 1548.5,703.167 1548.5,741.833 1548.5,780.5C 1563.37,784.201 1572.87,793.534 1577,808.5C 1577.98,839.858 1562.81,854.692 1531.5,853C 1523.69,850.597 1517.02,846.43 1511.5,840.5C 1495.55,855.52 1478.21,857.353 1459.5,846C 1446.64,834.431 1442.48,820.264 1447,803.5C 1451.83,791.341 1460.49,783.341 1473,779.5C 1473.5,741.168 1473.67,702.835 1473.5,664.5C 1465.49,664.666 1457.49,664.5 1449.5,664C 1445.21,660.229 1444.38,655.729 1447,650.5C 1448.15,649.364 1449.31,648.364 1450.5,647.5 Z"/></g>
<g><path style="opacity:1" fill="#fefefe" d="M 1491.5,664.5 C 1504.83,664.5 1518.17,664.5 1531.5,664.5C 1531.83,702.839 1531.5,741.172 1530.5,779.5C 1523.36,782.238 1517.02,786.238 1511.5,791.5C 1505.99,785.744 1499.32,782.078 1491.5,780.5C 1491.5,741.833 1491.5,703.167 1491.5,664.5 Z"/></g>
<g><path style="opacity:1" fill="#010101" d="M 1401.5,675.5 C 1405.38,676.211 1407.88,678.544 1409,682.5C 1409.67,727.167 1409.67,771.833 1409,816.5C 1405.02,828.493 1401.02,828.493 1397,816.5C 1396.33,772.167 1396.33,727.833 1397,683.5C 1397.74,680.352 1399.24,677.685 1401.5,675.5 Z"/></g>
<g><path style="opacity:1" fill="#040404" d="M 712.5,730.5 C 706.5,730.5 700.5,730.5 694.5,730.5C 694.81,727.287 694.477,724.287 693.5,721.5C 691.485,698.479 679.152,689.646 656.5,695C 644.482,700.687 636.316,709.854 632,722.5C 622.596,745.81 621.263,769.476 628,793.5C 635.462,804.979 645.962,809.479 659.5,807C 672.059,804.108 680.559,796.608 685,784.5C 686.949,780.371 688.116,776.037 688.5,771.5C 694.5,771.5 700.5,771.5 706.5,771.5C 699.822,812.358 676.155,829.191 635.5,822C 616.615,814.756 606.448,800.922 605,780.5C 604.238,761.117 606.572,742.117 612,723.5C 617.336,706.637 627.169,693.137 641.5,683C 659.649,674.2 677.649,674.534 695.5,684C 708.963,696.548 714.63,712.048 712.5,730.5 Z"/></g>
<g><path style="opacity:1" fill="#756d30" d="M 985.5,720.5 C 979.5,720.5 973.5,720.5 967.5,720.5C 967.784,718.585 967.451,716.919 966.5,715.5C 964.414,700.923 955.914,693.59 941,693.5C 921.3,693.85 913.633,703.517 918,722.5C 919.4,725.902 921.567,728.736 924.5,731C 938.323,737.745 951.99,744.745 965.5,752C 978.129,763.789 981.629,777.956 976,794.5C 970.805,810.358 959.972,819.858 943.5,823C 924.596,827.689 907.763,823.856 893,811.5C 884.518,800.241 881.352,787.574 883.5,773.5C 889.833,773.5 896.167,773.5 902.5,773.5C 899.171,798.672 910.171,809.839 935.5,807C 955.532,803.426 962.699,791.926 957,772.5C 955.285,770.241 953.452,768.074 951.5,766C 937.743,758.857 924.077,751.524 910.5,744C 897.514,731.888 894.014,717.388 900,700.5C 908.331,684.042 921.831,676.042 940.5,676.5C 970.075,676.41 985.075,691.076 985.5,720.5 Z"/></g>
<g><path style="opacity:1" fill="#756d30" d="M 1181.5,676.5 C 1195.31,675.696 1208.31,678.529 1220.5,685C 1231.81,694.118 1237.98,705.951 1239,720.5C 1240.71,742.954 1237.38,764.62 1229,785.5C 1211.78,820.689 1184.61,831.856 1147.5,819C 1136.07,812.306 1128.9,802.473 1126,789.5C 1120.93,758.511 1126.27,729.511 1142,702.5C 1151.63,688.353 1164.8,679.687 1181.5,676.5 Z"/></g>
<g><path style="opacity:1" fill="#cbcbcb" d="M 733.5,679.5 C 765.329,678.502 797.329,678.168 829.5,678.5C 829.737,679.791 829.404,680.791 828.5,681.5C 797.184,679.507 765.518,678.841 733.5,679.5 Z"/></g>
<g><path style="opacity:1" fill="#030303" d="M 353.5,820.5 C 347.355,821.49 341.022,821.823 334.5,821.5C 328.978,800.764 323.145,780.098 317,759.5C 310.577,758.843 304.077,758.509 297.5,758.5C 290.923,758.509 284.423,758.843 278,759.5C 274.558,780.094 271.725,800.761 269.5,821.5C 263.5,821.5 257.5,821.5 251.5,821.5C 251.5,820.5 251.5,819.5 251.5,818.5C 257.964,772.179 264.298,725.846 270.5,679.5C 292.169,679.333 313.836,679.5 335.5,680C 358.164,684.025 367.664,697.525 364,720.5C 362.054,734.237 355.22,744.737 343.5,752C 341.283,753.275 338.949,754.275 336.5,755C 335.978,755.561 335.645,756.228 335.5,757C 341.811,778.098 347.811,799.264 353.5,820.5 Z"/></g>
<g><path style="opacity:1" fill="#030303" d="M 395.5,800.5 C 394.549,801.919 394.216,803.585 394.5,805.5C 418.167,805.5 441.833,805.5 465.5,805.5C 464.185,810.744 463.518,816.077 463.5,821.5C 433.833,821.5 404.167,821.5 374.5,821.5C 374.5,820.5 374.5,819.5 374.5,818.5C 380.927,772.18 387.26,725.847 393.5,679.5C 422.833,679.5 452.167,679.5 481.5,679.5C 480.74,684.82 480.073,690.153 479.5,695.5C 456.167,695.5 432.833,695.5 409.5,695.5C 407.688,710.518 405.688,725.518 403.5,740.5C 423.5,740.5 443.5,740.5 463.5,740.5C 463.192,746.086 462.526,751.586 461.5,757C 441.169,757.5 420.836,757.667 400.5,757.5C 399.252,771.893 397.586,786.226 395.5,800.5 Z"/></g>
<g><path style="opacity:1" fill="#050505" d="M 490.5,821.5 C 484.642,821.822 478.975,821.489 473.5,820.5C 494.819,773.859 516.152,727.193 537.5,680.5C 541.5,680.167 545.5,679.833 549.5,679.5C 553.925,679.537 558.091,680.204 562,681.5C 570.491,728.127 578.658,774.793 586.5,821.5C 580.167,821.5 573.833,821.5 567.5,821.5C 566.423,811.205 564.756,801.038 562.5,791C 543.158,790.167 523.825,790.334 504.5,791.5C 500.005,801.688 495.338,811.688 490.5,821.5 Z"/></g>
<g><path style="opacity:1" fill="#020202" d="M 733.5,679.5 C 765.518,678.841 797.184,679.507 828.5,681.5C 827.756,685.119 827.423,688.785 827.5,692.5C 826.596,693.209 826.263,694.209 826.5,695.5C 813.323,695.171 800.323,695.505 787.5,696.5C 781.415,738.099 775.748,779.765 770.5,821.5C 764.074,822.12 758.074,821.453 752.5,819.5C 757.833,779.833 763.167,740.167 768.5,700.5C 769.451,699.081 769.784,697.415 769.5,695.5C 756.5,695.5 743.5,695.5 730.5,695.5C 731.019,689.953 732.019,684.62 733.5,679.5 Z"/></g>
<g><path style="opacity:1" fill="#766e31" d="M 1091.5,819.5 C 1085.79,821.386 1079.79,822.053 1073.5,821.5C 1073.5,820.167 1073.5,818.833 1073.5,817.5C 1075.89,797.463 1078.55,777.463 1081.5,757.5C 1062.5,757.333 1043.5,757.5 1024.5,758C 1021.11,779.078 1018.11,800.245 1015.5,821.5C 1009.5,821.5 1003.5,821.5 997.5,821.5C 1003.65,774.142 1009.98,726.808 1016.5,679.5C 1022.84,679.334 1029.18,679.5 1035.5,680C 1031.86,700.006 1029.19,720.172 1027.5,740.5C 1046.5,740.5 1065.5,740.5 1084.5,740.5C 1086.79,720.119 1089.46,699.785 1092.5,679.5C 1098.5,679.5 1104.5,679.5 1110.5,679.5C 1104.53,726.216 1098.19,772.883 1091.5,819.5 Z"/></g>
<g><path style="opacity:1" fill="#756d30" d="M 1272.5,679.5 C 1292.17,679.333 1311.84,679.5 1331.5,680C 1351.11,684.122 1361.11,696.289 1361.5,716.5C 1360.64,741.092 1348.3,756.258 1324.5,762C 1309.49,762.167 1294.49,762.667 1279.5,763.5C 1276.18,782.74 1273.51,802.074 1271.5,821.5C 1265.5,821.5 1259.5,821.5 1253.5,821.5C 1259.62,774.141 1265.95,726.808 1272.5,679.5 Z"/></g>
<g><path style="opacity:1" fill="#fefefd" d="M 1181.5,693.5 C 1202.75,690.85 1215.58,699.85 1220,720.5C 1221.2,740.707 1218.53,760.374 1212,779.5C 1199.97,805.506 1180.8,813.006 1154.5,802C 1150.21,797.936 1147.05,793.103 1145,787.5C 1141.5,765.31 1143.5,743.643 1151,722.5C 1156.87,708.124 1167.04,698.457 1181.5,693.5 Z"/></g>
<g><path style="opacity:1" fill="#979797" d="M 730.5,695.5 C 743.5,695.5 756.5,695.5 769.5,695.5C 769.784,697.415 769.451,699.081 768.5,700.5C 768.5,699.167 768.5,697.833 768.5,696.5C 755.656,696.829 742.989,696.495 730.5,695.5 Z"/></g>
<g><path style="opacity:1" fill="#9b9b9b" d="M 827.5,692.5 C 827.5,693.833 827.5,695.167 827.5,696.5C 814.167,696.5 800.833,696.5 787.5,696.5C 800.323,695.505 813.323,695.171 826.5,695.5C 826.263,694.209 826.596,693.209 827.5,692.5 Z"/></g>
<g><path style="opacity:1" fill="#fafafa" d="M 286.5,695.5 C 300.171,695.333 313.837,695.5 327.5,696C 342.108,698.363 347.941,706.863 345,721.5C 342.09,732.743 334.923,739.576 323.5,742C 309.171,742.5 294.837,742.667 280.5,742.5C 282.5,726.842 284.5,711.175 286.5,695.5 Z"/></g>
<g><path style="opacity:1" fill="#fafafa" d="M 546.5,694.5 C 551.328,720.474 555.662,746.807 559.5,773.5C 543.83,773.667 528.163,773.5 512.5,773C 521.522,753.122 530.688,733.289 540,713.5C 542.474,707.243 544.641,700.91 546.5,694.5 Z"/></g>
<g><path style="opacity:1" fill="#fdfdfc" d="M 1288.5,695.5 C 1300.5,695.333 1312.5,695.5 1324.5,696C 1331.75,697.042 1336.92,700.875 1340,707.5C 1343.17,718.695 1341.5,729.028 1335,738.5C 1331.03,741.902 1326.53,744.402 1321.5,746C 1308.5,746.5 1295.5,746.667 1282.5,746.5C 1284.21,729.46 1286.21,712.46 1288.5,695.5 Z"/></g>
<g><path style="opacity:1" fill="#b1ad8a" d="M 966.5,715.5 C 967.451,716.919 967.784,718.585 967.5,720.5C 973.5,720.5 979.5,720.5 985.5,720.5C 979.355,721.49 973.022,721.823 966.5,721.5C 966.5,719.5 966.5,717.5 966.5,715.5 Z"/></g>
<g><path style="opacity:1" fill="#696969" d="M 693.5,721.5 C 694.477,724.287 694.81,727.287 694.5,730.5C 700.5,730.5 706.5,730.5 712.5,730.5C 706.355,731.49 700.022,731.823 693.5,731.5C 693.5,728.167 693.5,724.833 693.5,721.5 Z"/></g>
<g><path style="opacity:1" fill="#fefefe" d="M 1704.5,749.5 C 1723.05,748.551 1731.55,757.218 1730,775.5C 1724.51,787.662 1715.34,791.829 1702.5,788C 1688.79,778.325 1687.13,766.992 1697.5,754C 1699.9,752.476 1702.23,750.976 1704.5,749.5 Z"/></g>
<g><path style="opacity:1" fill="#fefefe" d="M 1475.5,796.5 C 1497.21,795.698 1505.38,805.698 1500,826.5C 1488.28,839.677 1476.61,839.677 1465,826.5C 1459.72,813.392 1463.22,803.392 1475.5,796.5 Z"/></g>
<g><path style="opacity:1" fill="#fefefe" d="M 1533.5,796.5 C 1554.52,795.353 1562.69,805.019 1558,825.5C 1547.76,838.898 1536.42,839.898 1524,828.5C 1516.75,814.585 1519.92,803.919 1533.5,796.5 Z"/></g>
<g><path style="opacity:1" fill="#b7b7b7" d="M 395.5,800.5 C 395.5,801.833 395.5,803.167 395.5,804.5C 419.006,804.169 442.339,804.502 465.5,805.5C 441.833,805.5 418.167,805.5 394.5,805.5C 394.216,803.585 394.549,801.919 395.5,800.5 Z"/></g>
<g><path style="opacity:1" fill="#9b9b9b" d="M 251.5,818.5 C 251.5,819.5 251.5,820.5 251.5,821.5C 257.5,821.5 263.5,821.5 269.5,821.5C 263.355,822.49 257.022,822.823 250.5,822.5C 250.232,820.901 250.566,819.568 251.5,818.5 Z"/></g>
<g><path style="opacity:1" fill="#9c9c9c" d="M 353.5,820.5 C 354.043,820.56 354.376,820.893 354.5,821.5C 347.678,822.818 341.011,822.818 334.5,821.5C 341.022,821.823 347.355,821.49 353.5,820.5 Z"/></g>
<g><path style="opacity:1" fill="#9a9a9a" d="M 374.5,818.5 C 374.5,819.5 374.5,820.5 374.5,821.5C 404.167,821.5 433.833,821.5 463.5,821.5C 433.671,822.498 403.671,822.831 373.5,822.5C 373.232,820.901 373.566,819.568 374.5,818.5 Z"/></g>
<g><path style="opacity:1" fill="#9c9c9c" d="M 473.5,820.5 C 478.975,821.489 484.642,821.822 490.5,821.5C 484.654,822.817 478.654,822.817 472.5,821.5C 472.624,820.893 472.957,820.56 473.5,820.5 Z"/></g>
<g><path style="opacity:1" fill="#989898" d="M 752.5,819.5 C 758.074,821.453 764.074,822.12 770.5,821.5C 764.355,822.49 758.022,822.823 751.5,822.5C 751.263,821.209 751.596,820.209 752.5,819.5 Z"/></g>
<g><path style="opacity:1" fill="#c3bfa5" d="M 1073.5,817.5 C 1073.5,818.833 1073.5,820.167 1073.5,821.5C 1079.79,822.053 1085.79,821.386 1091.5,819.5C 1091.5,820.5 1091.5,821.5 1091.5,822.5C 1085.17,822.5 1078.83,822.5 1072.5,822.5C 1072.22,820.585 1072.55,818.919 1073.5,817.5 Z"/></g>
</svg>
