<?xml version="1.0" encoding="UTF-8"?>
<svg version="1.1" xmlns="http://www.w3.org/2000/svg" width="2000" height="282">
<path d="M0 0 C1.45788629 -0.00807831 1.45788629 -0.00807831 2.94522482 -0.01631981 C6.20486839 -0.03063743 9.46410805 -0.02348616 12.72377014 -0.01637268 C15.05957364 -0.02207424 17.39537435 -0.02903766 19.73117065 -0.03717041 C26.07822251 -0.05514034 32.4251364 -0.05392621 38.77220607 -0.04822803 C44.73784869 -0.0447515 50.70347007 -0.05269437 56.6691081 -0.05958868 C69.20589656 -0.07331509 81.74262262 -0.06787505 94.27940965 -0.05640347 C105.7467184 -0.04647089 117.2138658 -0.05941185 128.68114965 -0.08333766 C140.45834296 -0.10772478 152.23546111 -0.1173375 164.01267916 -0.11068493 C170.62367611 -0.10731017 177.23453975 -0.10976504 183.84551811 -0.12693596 C190.06144541 -0.1423756 196.27706408 -0.13848237 202.49297905 -0.11963081 C204.77545614 -0.11593673 207.05795594 -0.11907711 209.34041214 -0.1295166 C212.45410629 -0.14267168 215.56677045 -0.13122693 218.68041992 -0.11352539 C219.58557797 -0.1231304 220.49073602 -0.1327354 221.42332309 -0.14263147 C226.89857725 -0.07850087 230.07174292 0.71323677 234.40370178 4.38768005 C236.89505033 8.17886262 236.61885761 11.88052946 236.01698303 16.23143005 C235.0526869 19.62182155 233.15097575 21.29451893 230.40370178 23.38768005 C227.40370178 24.38768005 227.40370178 24.38768005 216.40370178 25.38768005 C247.09370178 56.07768005 277.78370178 86.76768005 309.40370178 118.38768005 C312.37370178 117.39768005 315.34370178 116.40768005 318.40370178 115.38768005 C333.08326929 110.86659653 347.41293821 110.97329097 361.27870178 118.20018005 C374.30918818 125.9317277 381.86516903 136.71011793 385.93202209 151.28050232 C388.88614184 164.47771119 386.10281754 177.94050957 379.71620178 189.57518005 C372.07046692 201.3741536 361.38892026 208.57335692 347.93885803 212.36424255 C333.01236952 215.07814956 319.48467049 212.14701046 306.75135803 204.07518005 C295.38694876 195.90641997 288.66041353 184.10611197 286.40370178 170.38768005 C285.55512149 157.81199838 287.71597633 148.07755741 292.40370178 136.38768005 C279.15829758 121.7482703 265.73548068 107.29354256 252.09462357 93.02168369 C245.76011973 86.3860177 239.4899783 79.70789573 233.35438538 72.88743591 C227.98929311 66.92379719 222.51904072 61.0811546 216.91166949 55.34442657 C213.45794531 51.80254467 210.12516099 48.20570245 206.93225336 44.42601979 C198.49529595 35.08197852 193.36087113 32.63399666 181.40370178 25.38768005 C151.70370178 24.89268005 151.70370178 24.89268005 121.40370178 24.38768005 C121.40370178 74.54768005 121.40370178 124.70768005 121.40370178 176.38768005 C124.70370178 177.37768005 128.00370178 178.36768005 131.40370178 179.38768005 C144.58656923 185.44322486 153.31307091 196.48700721 158.34120178 209.95018005 C162.06444773 224.3544878 159.75817781 239.09484337 152.40370178 251.82518005 C145.16467945 263.45089255 134.42414096 271.08637412 121.21620178 274.63768005 C107.25578929 277.34205315 93.42709776 274.97937559 81.40370178 267.38768005 C78.25431375 264.86629499 75.29384449 262.20103153 72.40370178 259.38768005 C69.30319273 260.79574121 66.93885259 262.5103847 64.34120178 264.70018005 C53.07250209 273.5819138 40.52550729 276.44598866 26.40370178 275.38768005 C12.1009496 273.11627524 0.36061124 266.54833102 -8.48301697 254.90330505 C-16.4872123 242.24175677 -19.7604712 228.11156618 -16.47129822 213.38768005 C-12.71077355 199.96225555 -6.20898321 190.14798925 5.34120178 182.51268005 C5.91419006 182.13087585 6.48717834 181.74907166 7.07752991 181.35569763 C11.67369121 178.47011331 14.78244047 177.79299538 20.40370178 176.38768005 C20.40370178 126.22768005 20.40370178 76.06768005 20.40370178 24.38768005 C10.83370178 24.38768005 1.26370178 24.38768005 -8.59629822 24.38768005 C-16.15557297 19.8521152 -16.15557297 19.8521152 -17.21348572 16.3368988 C-17.80426975 11.15411161 -17.7581997 7.81434212 -14.59629822 3.38768005 C-10.02013302 -0.33199589 -5.62281069 -0.03724241 0 0 Z M44.40370178 24.38768005 C44.40370178 74.54768005 44.40370178 124.70768005 44.40370178 176.38768005 C50.83870178 178.86268005 50.83870178 178.86268005 57.40370178 181.38768005 C60.97401428 183.52049255 60.97401428 183.52049255 63.52870178 185.51268005 C64.39752991 186.17525818 65.26635803 186.8378363 66.16151428 187.52049255 C68.02042253 189.06850325 69.73906986 190.63600855 71.40370178 192.38768005 C71.91417053 191.87978943 72.42463928 191.3718988 72.95057678 190.84861755 C80.24476296 183.94242001 88.1425763 180.09213025 97.40370178 176.38768005 C97.40370178 126.22768005 97.40370178 76.06768005 97.40370178 24.38768005 C79.91370178 24.38768005 62.42370178 24.38768005 44.40370178 24.38768005 Z M315.40370178 146.38768005 C310.43871451 153.261174 309.59428884 160.09119737 310.40370178 168.38768005 C312.29670944 174.99263069 315.77301268 181.03728658 321.63026428 184.8290863 C328.96885076 188.81646069 335.28819201 190.41026041 343.46620178 188.32518005 C351.93935782 185.40430949 357.43131712 180.38359597 361.40370178 172.38768005 C363.70108141 165.49554116 363.42995103 157.62371449 360.40370178 151.01268005 C356.25706182 143.84924305 350.64198994 139.03213963 342.62245178 136.8212738 C331.76164415 134.69882724 322.7913269 138.24792116 315.40370178 146.38768005 Z M14.40370178 206.38768005 C9.27578322 211.99314314 6.80043784 217.10293066 6.09120178 224.76268005 C6.78223679 232.77868614 9.63284612 239.67901034 15.40370178 245.38768005 C22.33439058 250.23675572 28.96196836 252.34756563 37.40370178 251.38768005 C45.97782647 248.93247818 51.8122939 245.2020756 56.32948303 237.45018005 C60.11466919 230.18262262 60.03875935 222.94293588 57.75526428 215.18455505 C54.95876303 208.66793747 49.27741022 203.20141641 42.88417053 200.20799255 C32.15938172 196.661212 22.57782883 198.59214415 14.40370178 206.38768005 Z M89.40370178 207.38768005 C84.23836576 214.90440039 82.74464929 221.33503444 83.40370178 230.38768005 C84.6681283 236.97661823 88.46078929 241.97331662 93.40370178 246.38768005 C100.11595647 250.66135414 106.48487246 252.1933749 114.40370178 251.38768005 C121.86342704 249.35097875 128.42619469 244.74909889 132.79042053 238.35643005 C136.25238885 231.65114405 136.43654633 224.40679238 134.93104553 217.09080505 C132.61796546 209.94380314 128.14003977 205.06166213 121.59120178 201.51268005 C110.14423247 196.34528882 98.3256545 198.16832891 89.40370178 207.38768005 Z " fill="#D1D7C7" transform="translate(1609.5962982177734,4.6123199462890625)"/>
<path d="M0 0 C10.54548143 -0.06995143 21.09090635 -0.1230381 31.63657379 -0.15543652 C36.53498107 -0.17099732 41.43322796 -0.19205721 46.33154297 -0.22631836 C51.0713302 -0.2592578 55.81096455 -0.27692478 60.55085754 -0.28463173 C62.34628196 -0.2901139 64.14169938 -0.3008162 65.9370575 -0.31719017 C83.45982835 -0.47043625 101.81760696 0.19534999 115.4375 12.75 C126.09609399 24.33928203 126.79748113 38.36085369 126.19091797 53.29589844 C125.18319961 67.56890169 118.48833899 81.24879327 108 91 C94.22176591 102 94.22176591 102 87 102 C87.22470978 102.76769211 87.44941956 103.53538422 87.68093872 104.32633972 C89.82829665 111.66295982 91.97499494 118.99977249 94.1210041 126.33678722 C95.22355167 130.10621823 96.32632923 133.8755816 97.4296875 137.64477539 C99.92294605 146.16251223 102.41220743 154.68139619 104.89367676 163.20257568 C105.60021017 165.62773232 106.30771321 168.05260681 107.01647949 170.47711182 C107.88741417 173.45884954 108.7532794 176.44200153 109.6171875 179.42578125 C109.86542267 180.27230759 110.11365784 181.11883392 110.36941528 181.99101257 C111.26007658 185.08503812 112 187.76269469 112 191 C103.09 191 94.18 191 85 191 C82.31125306 181.82034354 79.6245307 172.64010095 76.94125652 163.45884323 C75.69490181 159.19453011 74.44770091 154.93046848 73.19848633 150.66699219 C71.99041264 146.54380647 70.78466603 142.4199465 69.58045387 138.29563141 C69.1232269 136.73113595 68.66519616 135.16687513 68.20630455 133.60286713 C67.55810209 131.3931091 66.91290192 129.18249337 66.26831055 126.97167969 C65.90190964 125.71925476 65.53550873 124.46682983 65.15800476 123.17645264 C63.6704455 117.81143083 62.35030043 112.40120174 61 107 C44.5 107 28 107 11 107 C9.9275 115.0025 8.855 123.005 7.75 131.25 C3.62673573 161.91761358 3.62673573 161.91761358 1.625 176 C1.46999023 177.09860352 1.31498047 178.19720703 1.15527344 179.32910156 C1.01379883 180.31362305 0.87232422 181.29814453 0.7265625 182.3125 C0.60877441 183.13363281 0.49098633 183.95476562 0.36962891 184.80078125 C0.01886644 186.88774842 -0.48673672 188.94694689 -1 191 C-9.25 191 -17.5 191 -26 191 C-25.36348607 180.28100866 -24.11551958 169.78347861 -22.59155273 159.16259766 C-22.34469065 157.41677069 -22.09825312 155.67088365 -21.85220337 153.92494202 C-21.18921628 149.22902423 -20.52036236 144.53395947 -19.85037875 139.83903551 C-19.1489089 134.91616071 -18.45293912 129.99250838 -17.75636292 125.06893921 C-16.43923214 115.76508151 -15.11722135 106.4619242 -13.79341608 97.15901411 C-12.28537407 86.55967335 -10.78283452 75.95955486 -9.28073585 65.35937047 C-6.19323967 43.57204836 -3.09890244 21.78570248 0 0 Z M22 23 C20.95367491 30.36233527 19.91033425 37.72508696 18.87078857 45.08838272 C18.38797919 48.50753628 17.90414779 51.92653867 17.41796875 55.34521484 C16.85892357 59.27658843 16.30434503 63.2085858 15.75 67.140625 C15.57500977 68.36678528 15.40001953 69.59294556 15.21972656 70.85626221 C15.05956055 71.99714294 14.89939453 73.13802368 14.734375 74.31347656 C14.59225586 75.31719299 14.45013672 76.32090942 14.30371094 77.3550415 C13.92394883 80.21859156 13.92394883 80.21859156 14 84 C21.45227212 84.10220736 28.90436059 84.17180156 36.35717773 84.21972656 C38.88751988 84.23972544 41.41781651 84.26693353 43.94799805 84.30175781 C47.60476989 84.3507936 51.26092577 84.3730871 54.91796875 84.390625 C56.58909981 84.42159271 56.58909981 84.42159271 58.29399109 84.45318604 C71.14721315 84.45678119 81.77700571 81.16462666 90.93359375 72.08203125 C98.11135885 64.36705296 100.4144607 56.37798382 100.2734375 45.9140625 C99.66829451 39.46496719 97.51172329 33.97383932 92.6875 29.5625 C85.90131121 24.42935719 78.72798059 22.86683573 70.36181641 22.88647461 C68.74081528 22.88658791 68.74081528 22.88658791 67.08706665 22.88670349 C65.93685028 22.89186478 64.78663391 22.89702606 63.6015625 22.90234375 C61.81641739 22.90446617 61.81641739 22.90446617 59.99520874 22.90663147 C56.20511328 22.9122158 52.41507752 22.92476549 48.625 22.9375 C46.0507821 22.94251702 43.47656328 22.94707958 40.90234375 22.95117188 C34.60154223 22.96218011 28.30077538 22.97890269 22 23 Z " fill="#000000" transform="translate(30,47)"/>
<path d="M0 0 C1.32451172 0.40025391 1.32451172 0.40025391 2.67578125 0.80859375 C16.52980319 5.65642413 27.29423296 16.24881319 33.62451172 29.3034668 C47.67346823 60.48919776 41.89440424 102.92200934 30.43579102 134.04150391 C21.81680854 156.17066719 8.01743364 177.40809428 -14 188 C-34.85886906 196.26692732 -58.31587234 196.73240675 -79.3125 188.75 C-93.66653628 182.3450117 -103.43228026 170.51557944 -109 156 C-120.83496197 121.92080616 -113.21172086 77.68630784 -98.72265625 45.41015625 C-93.51470913 35.10054665 -87.03954985 26.30076266 -79 18 C-78.08347656 16.95585938 -78.08347656 16.95585938 -77.1484375 15.890625 C-58.64348953 -4.42544554 -25.12746045 -7.8332569 0 0 Z M-62.80859375 35.33203125 C-77.99503854 53.82105405 -84.54781609 76.50465651 -87 100 C-87.11085938 101.0621875 -87.22171875 102.124375 -87.3359375 103.21875 C-89.05323526 122.34109263 -89.50756863 143.06717003 -77.40625 159.11328125 C-70.13534918 167.12156116 -60.32853558 170.14735285 -49.86328125 171.21875 C-36.72013328 171.80181017 -24.05627615 167.43235856 -14 159.125 C5.85507742 140.26892019 12.81344514 110.58135661 14.20458984 84.10644531 C14.30120396 80.19381887 14.32224535 76.28873327 14.3125 72.375 C14.32861328 71.07304688 14.34472656 69.77109375 14.36132812 68.4296875 C14.36734833 56.38928716 12.92826505 45.10454702 6 35 C5.58105469 34.37480469 5.16210938 33.74960938 4.73046875 33.10546875 C-0.56189293 26.10490964 -9.05519108 21.72461628 -17.63671875 20.24609375 C-34.76846108 18.46212719 -50.8012892 22.50848775 -62.80859375 35.33203125 Z " fill="#736B2D" transform="translate(1279,47)"/>
<path d="M0 0 C8.25 0 16.5 0 25 0 C24.39998126 9.75383863 23.38224358 19.30199426 21.96875 28.97265625 C21.77040091 30.3530881 21.57245187 31.73357748 21.37487793 33.11412048 C20.96432909 35.97585311 20.5506425 38.83710596 20.13427734 41.69799805 C19.60201286 45.35543153 19.07534034 49.01364194 18.55068207 52.6721735 C18.04607741 56.18927147 17.53878525 59.70598019 17.03125 63.22265625 C16.93577377 63.88571337 16.84029755 64.54877048 16.7419281 65.23192024 C16.47070653 67.11194 16.1973126 68.99164598 15.92382812 70.87133789 C15.76918091 71.9371962 15.61453369 73.0030545 15.4552002 74.10121155 C15.03987968 76.74603976 14.52504972 79.3747514 14 82 C38.75 82 63.5 82 89 82 C89.99 74.08 90.98 66.16 92 58 C92.65492262 53.15586739 93.31669 48.31531023 94.0078125 43.4765625 C94.17876434 42.27228607 94.34971619 41.06800964 94.52584839 39.82723999 C94.87929265 37.34252097 95.23378473 34.85795076 95.58935547 32.37353516 C96.13529109 28.55298115 96.6751579 24.73159755 97.21484375 20.91015625 C97.56213767 18.47390666 97.90978005 16.0377067 98.2578125 13.6015625 C98.41823029 12.46224274 98.57864807 11.32292297 98.743927 10.14907837 C98.89433441 9.10553192 99.04474182 8.06198547 99.19970703 6.98681641 C99.33055695 6.06881256 99.46140686 5.15080872 99.59622192 4.20498657 C100 2 100 2 101 0 C109.25 0 117.5 0 126 0 C124.75682513 12.28646922 123.32277751 24.50580523 121.58569336 36.73071289 C121.3502972 38.40508751 121.11518342 40.07950185 120.88032532 41.75395203 C120.25126169 46.23259771 119.61806913 50.71064988 118.98384547 55.1885674 C118.45301845 58.93948909 117.92435889 62.69071498 117.39570242 66.44194311 C116.15013946 75.28015528 114.90128162 84.11789729 113.65014648 92.95532227 C112.35991224 102.06925052 111.07469362 111.18387602 109.7919721 120.29886442 C108.68707292 128.14926024 107.57944908 135.9992681 106.46953875 143.848957 C105.80798461 148.52775603 105.14739684 153.20668606 104.48930168 157.88597298 C103.8727518 162.26880533 103.25279576 166.65114232 102.63015556 171.03311348 C102.40197375 172.64306046 102.17499985 174.25317916 101.94929886 175.8634758 C101.64208284 178.05395375 101.33057628 180.24377861 101.01792908 182.43348694 C100.84446425 183.66060426 100.67099943 184.88772158 100.4922781 186.15202427 C100 189 100 189 99 191 C90.75 191 82.5 191 74 191 C75.12523809 177.49714296 75.12523809 177.49714296 76.015625 171.16772461 C76.11170044 170.47828766 76.20777588 169.78885071 76.3067627 169.07852173 C76.61784914 166.85264725 76.93373827 164.62748828 77.25 162.40234375 C77.47059121 160.834874 77.69096482 159.26737361 77.91113281 157.69984436 C78.36958196 154.44126953 78.83038576 151.18303932 79.29296875 147.92504883 C79.88567928 143.74943186 80.47275979 139.57304595 81.0581665 135.3963995 C81.51074564 132.17139745 81.96606396 128.94678683 82.42224121 125.72229195 C82.63993394 124.18141533 82.85681836 122.64042429 83.07287598 121.09931755 C83.37395078 118.95505156 83.67866245 116.81133361 83.984375 114.66772461 C84.24299316 112.84004799 84.24299316 112.84004799 84.50683594 110.97544861 C85 108 85 108 86 105 C61.25 105.33 36.5 105.66 11 106 C7.04 134.05 3.08 162.1 -1 191 C-9.58 191 -18.16 191 -27 191 C-24.59960425 171.22554984 -21.8721836 151.50636836 -19.08438063 131.78382969 C-18.57899275 128.20672913 -18.07482425 124.62945712 -17.57064688 121.05218577 C-16.38276434 112.62390804 -15.19300736 104.19589647 -14.00195312 95.76806641 C-12.7753339 87.08838147 -11.55167592 78.40828267 -10.32946432 69.72797608 C-9.27448164 62.23597611 -8.21784415 54.74421087 -7.15983546 47.25263762 C-6.53016244 42.79398221 -5.90108129 38.33524543 -5.2735405 33.87628937 C-4.68609898 29.70286186 -4.0965867 25.52973206 -3.50546074 21.35682487 C-3.28905014 19.82666049 -3.07336819 18.29639285 -2.85846519 16.76601601 C-2.56536156 14.67960243 -2.26963508 12.593577 -1.97323608 10.50762939 C-1.80844442 9.34047016 -1.64365276 8.17331093 -1.47386742 6.97078323 C-1 4 -1 4 0 0 Z " fill="#736B2D" transform="translate(1023,47)"/>
<path d="M0 0 C10.61380618 9.03869796 15.88587338 21.36181063 18 35 C18.12845836 39.67074606 18.0436792 44.32632581 18 49 C9.42 49 0.84 49 -8 49 C-8.2475 46.89625 -8.495 44.7925 -8.75 42.625 C-9.92647952 34.4310687 -11.7718979 25.89144793 -18 20 C-27.80182181 13.24148577 -38.38431928 11.68723943 -50.05078125 13.46484375 C-57.48779758 15.06186505 -64.895944 17.52498594 -69.40625 24.02734375 C-73.39800603 31.68296156 -74.63112994 40.37459089 -72.19921875 48.76171875 C-67.38150377 59.57260494 -57.26600762 64.22115401 -47 68.9375 C-45.90220215 69.45473633 -44.8044043 69.97197266 -43.67333984 70.50488281 C-38.79238652 72.80003775 -33.8941667 75.05409525 -28.9765625 77.26953125 C-12.33789987 84.80501281 -0.1427944 93.62239616 7 111 C11.3060136 126.00580498 8.10370662 144.44661715 1.125 158 C-6.91460024 171.45888633 -19.29848855 179.91004864 -34.40234375 183.8984375 C-55.8287936 188.64053503 -79.03670269 187.80906664 -98 176 C-109.73502846 167.44089264 -115.51594645 156.30000832 -118.59765625 142.28125 C-119.15178009 137.76218176 -119.14466111 133.29826929 -119.125 128.75 C-119.13080078 127.38488281 -119.13080078 127.38488281 -119.13671875 125.9921875 C-119.13542969 125.12335938 -119.13414062 124.25453125 -119.1328125 123.359375 C-119.13168457 122.57014648 -119.13055664 121.78091797 -119.12939453 120.96777344 C-119 119 -119 119 -118 117 C-109.42 117 -100.84 117 -92 117 C-92.1875 127.4375 -92.1875 127.4375 -92.27026367 130.66967773 C-92.34475964 139.32803191 -90.95207161 146.95743753 -84.8515625 153.43359375 C-76.77319274 160.26782639 -65.89718772 162.5621685 -55.50390625 162.24609375 C-44.56017397 161.17050072 -32.67266058 158.57755951 -25 150.0625 C-19.84026553 142.16165659 -18.06432686 134.31604994 -19 125 C-21.0535767 116.32788949 -26.0694594 110.1965231 -33.50048828 105.37890625 C-36.23685591 103.85887046 -39.00396882 102.44450948 -41.8125 101.0625 C-42.81716309 100.55162842 -43.82182617 100.04075684 -44.85693359 99.5144043 C-50.43270752 96.69922395 -56.06335685 94.02120782 -61.73779297 91.41186523 C-77.39637849 84.20071668 -90.98604915 76.0492962 -98.08984375 59.578125 C-103.11649782 45.33953406 -100.43275928 28.20687885 -94.375 14.8125 C-88.06660568 2.92599346 -77.89082063 -4.29042071 -65.25 -8.3125 C-44.54747514 -14.3549857 -17.69067796 -13.46029845 0 0 Z " fill="#736B2D" transform="translate(964,55)"/>
<path d="M0 0 C38.94 0 77.88 0 118 0 C117 12 117 12 115 23 C84.31 23 53.62 23 22 23 C21.67 26.96 21.34 30.92 21 35 C20.56906075 38.48645427 20.1185839 41.96041816 19.625 45.4375 C19.49561035 46.36546387 19.3662207 47.29342773 19.23291016 48.24951172 C18.96220292 50.18560723 18.6898946 52.12147952 18.41601562 54.05712891 C17.99709012 57.02058431 17.58412508 59.9848281 17.171875 62.94921875 C16.90659837 64.84119471 16.6409856 66.73312358 16.375 68.625 C16.25205566 69.50728271 16.12911133 70.38956543 16.00244141 71.29858398 C15.88562012 72.12044189 15.76879883 72.9422998 15.6484375 73.7890625 C15.54708496 74.50787598 15.44573242 75.22668945 15.34130859 75.96728516 C15.00019212 77.99885579 14.49962572 80.00149711 14 82 C40.4 82 66.8 82 94 82 C93 96 93 96 91 105 C64.6 105 38.2 105 11 105 C8.78264391 121.99145769 8.78264391 121.99145769 6.57275391 138.98388672 C6.29095788 141.13252212 6.00891054 143.28112457 5.7265625 145.4296875 C5.58565186 146.52289307 5.44474121 147.61609863 5.29956055 148.74243164 C5.08674438 150.35468628 5.08674438 150.35468628 4.86962891 151.99951172 C4.74971588 152.91884491 4.62980286 153.8381781 4.5062561 154.78536987 C3.80878418 159.21418418 2.87926681 163.60366595 2 168 C33.02 168 64.04 168 96 168 C95 180 95 180 93 191 C53.4 191 13.8 191 -27 191 C-18.90169235 130.8411432 -18.90169235 130.8411432 -15.48652124 106.83367467 C-14.97466329 103.2329914 -14.46478433 99.63202763 -13.95455933 96.03111267 C-13.10737799 90.05416979 -12.25877463 84.07743032 -11.40917969 78.10083008 C-10.43058785 71.21665338 -9.45443048 64.33213448 -8.47943318 57.44744784 C-7.52553212 50.71210147 -6.57002674 43.97698365 -5.61376572 37.24197197 C-5.21215592 34.41322484 -4.81109584 31.58440062 -4.41049576 28.75551033 C-3.85751273 24.85117536 -3.30217614 20.9471772 -2.74658203 17.04321289 C-2.58351059 15.88988464 -2.42043915 14.7365564 -2.25242615 13.54827881 C-2.10129868 12.48905716 -1.9501712 11.42983551 -1.79446411 10.33851624 C-1.6643651 9.42250169 -1.53426609 8.50648714 -1.40022469 7.56271458 C-1.00463357 5.02966964 -0.50279255 2.51396274 0 0 Z " fill="#000000" transform="translate(194,47)"/>
<path d="M0 0 C1.34888732 0.00015905 2.69778075 0.00584927 4.04663086 0.01586914 C5.10991859 0.01799156 5.10991859 0.01799156 6.19468689 0.02015686 C8.46699173 0.02577096 10.73919936 0.03832576 13.01147461 0.05102539 C14.54858257 0.05603858 16.08569206 0.0606018 17.62280273 0.06469727 C21.39822784 0.0748956 25.17358751 0.09385519 28.94897461 0.11352539 C32.75955874 18.34571466 35.96134927 36.68889197 39.21049404 55.02725434 C39.68715477 57.717029 40.16437317 60.40670415 40.64176178 63.09634972 C42.31057016 72.49918626 43.97678814 81.90247808 45.64086914 91.30615234 C47.18776656 100.04715551 48.74090011 108.78703584 50.29675269 117.52644902 C51.63865302 125.06585091 52.97593947 132.60606194 54.30970025 140.14690799 C55.10378666 144.63598374 55.89977637 149.12470144 56.70055389 153.61258888 C57.45115949 157.82007026 58.19602197 162.02852845 58.93650627 166.23780251 C59.20854261 167.77846911 59.48262087 169.31877682 59.75892067 170.85868454 C60.13650783 172.96493261 60.50661477 175.07236737 60.87493896 177.18025208 C61.18793001 178.94569728 61.18793001 178.94569728 61.50724411 180.74680805 C61.94897461 184.11352539 61.94897461 184.11352539 61.94897461 191.11352539 C53.36897461 191.11352539 44.78897461 191.11352539 35.94897461 191.11352539 C34.94970529 185.4722422 33.95198411 179.83073128 32.95825195 174.18847656 C32.61965244 172.26871794 32.28013913 170.34912026 31.93969727 168.4296875 C31.45080679 165.67237373 30.96519429 162.91449986 30.48022461 160.15649414 C30.32710815 159.29702682 30.1739917 158.43755951 30.01623535 157.55204773 C29.87609009 156.75144424 29.73594482 155.95084076 29.59155273 155.12597656 C29.46719849 154.42204269 29.34284424 153.71810883 29.21472168 152.99284363 C28.94897461 151.11352539 28.94897461 151.11352539 28.94897461 148.11352539 C4.19897461 148.11352539 -20.55102539 148.11352539 -46.05102539 148.11352539 C-46.71102539 150.09352539 -47.37102539 152.07352539 -48.05102539 154.11352539 C-48.58943012 155.44577165 -49.14770924 156.77026277 -49.73095703 158.08349609 C-50.04791031 158.80056229 -50.36486359 159.51762848 -50.69142151 160.25642395 C-51.02794235 161.00977524 -51.3644632 161.76312653 -51.71118164 162.53930664 C-52.06111679 163.3275029 -52.41105194 164.11569916 -52.77159119 164.92778015 C-53.50734501 166.58315185 -54.24447549 168.23791229 -54.98291016 169.89208984 C-56.11690548 172.43360085 -57.2453859 174.97750978 -58.37329102 177.52172852 C-59.08976182 179.13189969 -59.80654751 180.74193079 -60.52368164 182.35180664 C-61.03149925 183.4970153 -61.03149925 183.4970153 -61.54957581 184.6653595 C-63.93582787 189.99832787 -63.93582787 189.99832787 -65.05102539 191.11352539 C-66.9047215 191.20090184 -68.7617008 191.22050692 -70.61743164 191.21118164 C-71.74213867 191.20795898 -72.8668457 191.20473633 -74.02563477 191.20141602 C-75.20963867 191.19303711 -76.39364258 191.1846582 -77.61352539 191.17602539 C-78.80139648 191.17151367 -79.98926758 191.16700195 -81.21313477 191.16235352 C-84.15914765 191.15052214 -87.1050622 191.13403826 -90.05102539 191.11352539 C-88.14456178 184.99614091 -85.86636072 179.2157817 -83.12915039 173.42602539 C-82.75259308 172.61877014 -82.37603577 171.81151489 -81.98806763 170.97979736 C-81.18194215 169.25276552 -80.37366968 167.52673443 -79.56341553 165.80163574 C-77.40085618 161.19672161 -75.25454659 156.58423098 -73.10571289 151.97290039 C-72.67300079 151.04548035 -72.2402887 150.1180603 -71.79446411 149.16253662 C-67.95170417 140.92012396 -64.17590877 132.64851705 -60.42602539 124.36352539 C-59.21432815 121.68880018 -58.00205023 119.01433883 -56.78930664 116.34008789 C-56.48770126 115.67500214 -56.18609589 115.00991638 -55.87535095 114.32467651 C-52.14948085 106.11642196 -48.38093024 97.92777642 -44.61352539 89.73852539 C-39.39002519 78.3827043 -34.17374724 67.0236933 -28.97851562 55.65490723 C-27.99706593 53.50721454 -27.01527576 51.35967774 -26.03344727 49.2121582 C-22.90729813 42.37301217 -19.78524475 35.53203102 -16.67070007 28.68759155 C-15.17925316 25.41068867 -13.68616366 22.13453554 -12.19290161 18.85845947 C-11.47712255 17.28685806 -10.76216796 15.71488088 -10.04806519 14.14251709 C-9.06276538 11.9730843 -8.07477456 9.80489656 -7.08618164 7.63696289 C-6.7922049 6.98775879 -6.49822815 6.33855469 -6.19534302 5.66967773 C-3.66623329 0.13641662 -3.66623329 0.13641662 0 0 Z M8.94897461 22.11352539 C8.54155029 23.2646582 8.13412598 24.41579102 7.71435547 25.60180664 C3.49732665 37.36600525 -1.29153648 48.75314618 -6.48852539 60.11352539 C-7.27175715 61.83989796 -8.05437912 63.56654729 -8.83642578 65.29345703 C-12.75409155 73.93293866 -16.71048451 82.55453028 -20.67602539 91.17211914 C-21.40984183 92.76911925 -22.14364739 94.36612436 -22.87744141 95.96313477 C-24.24915129 98.94790766 -25.62795545 101.92924593 -27.01171875 104.90844727 C-27.63826418 106.26709654 -28.26465611 107.62581662 -28.89086914 108.98461914 C-29.43090576 110.14920654 -29.97094238 111.31379395 -30.52734375 112.51367188 C-32.26673273 116.623156 -33.63987927 120.88008702 -35.05102539 125.11352539 C-15.25102539 125.11352539 4.54897461 125.11352539 24.94897461 125.11352539 C24.10221141 115.77764912 24.10221141 115.77764912 22.765625 106.57275391 C22.65164871 105.90101639 22.53767242 105.22927887 22.42024231 104.53718567 C22.17598788 103.100378 21.92988005 101.66388431 21.682024 100.22769356 C21.28633415 97.93271121 20.89653059 95.63679318 20.50816345 93.34056091 C19.40410875 86.81892547 18.28999391 80.29902282 17.171875 73.77978516 C11.14763019 38.61949527 11.14763019 38.61949527 9.94897461 22.11352539 C9.61897461 22.11352539 9.28897461 22.11352539 8.94897461 22.11352539 Z " fill="#000000" transform="translate(389.051025390625,46.886474609375)"/>
<path d="M0 0 C13.01523288 10.70044314 18.37305419 26.33495676 20.37109375 42.63671875 C20.85579599 49.20478539 20.75617391 55.7027748 20.640625 62.2890625 C12.060625 62.2890625 3.480625 62.2890625 -5.359375 62.2890625 C-5.606875 59.0921875 -5.854375 55.8953125 -6.109375 52.6015625 C-7.69319352 34.76967561 -7.69319352 34.76967561 -17.359375 20.2890625 C-27.67754222 13.90495903 -37.70212228 11.52536142 -49.71484375 13.97265625 C-64.17875839 18.05917844 -72.57135425 26.00813833 -79.921875 38.7890625 C-95.14969094 66.42863521 -102.7498378 105.43270273 -94.546875 136.3515625 C-91.06111064 146.80885559 -85.1366269 154.00429794 -75.48046875 159.32421875 C-65.28675425 163.61315929 -51.03513169 162.58587385 -40.96875 158.609375 C-28.45592167 152.27803372 -20.16533554 140.49981703 -15.71337891 127.38623047 C-14.46478997 123.37906202 -13.4170871 119.35718595 -12.359375 115.2890625 C-4.109375 115.2890625 4.140625 115.2890625 12.640625 115.2890625 C10.12194014 137.95722626 1.48066534 157.71916998 -16.1171875 172.625 C-33.16678057 185.69149725 -52.59843807 188.2206309 -73.48046875 185.890625 C-88.72441302 183.40642668 -102.74035844 176.01685162 -112.046875 163.6015625 C-129.14495329 137.77918002 -125.83510494 102.28818562 -120.171875 73.3515625 C-115.57550416 51.48006753 -108.44582332 30.21389814 -93.359375 13.2890625 C-92.66199219 12.43828125 -91.96460938 11.5875 -91.24609375 10.7109375 C-70.17331609 -14.29193191 -26.63252168 -19.31298757 0 0 Z " fill="#000000" transform="translate(598.359375,54.7109375)"/>
<path d="M0 0 C9.38930321 -0.06998455 18.77851452 -0.12305437 28.16802311 -0.15543652 C32.52950925 -0.17099034 36.89081493 -0.19203675 41.25219727 -0.22631836 C45.47327343 -0.25928366 49.69417773 -0.27692997 53.91537285 -0.28463173 C55.51345965 -0.29010941 57.1115387 -0.30080243 58.70955086 -0.31719017 C75.68815117 -0.4841376 93.44161685 1.04675966 106.48046875 13.32421875 C114.49710183 22.16518428 118.49807696 33.12842904 119 45 C119.03996094 45.680625 119.07992188 46.36125 119.12109375 47.0625 C119.67529416 64.79691298 114.10830244 82.48524957 102 95.625 C84.09256369 112.5442333 63.37490701 112.58951324 40.08343506 112.2746582 C36.68398059 112.23318016 33.28440208 112.215353 29.88476562 112.1953125 C23.25619424 112.15157501 16.62816511 112.08491661 10 112 C9.90275635 112.96510498 9.8055127 113.93020996 9.70532227 114.92456055 C8.3066977 128.33409894 6.41121097 141.66638903 4.48608398 155.0090332 C3.9320972 158.84995892 3.3827259 162.69152487 2.83398438 166.53320312 C2.48203711 168.98701737 2.12983311 171.44079482 1.77734375 173.89453125 C1.61378891 175.03718948 1.45023407 176.17984772 1.28172302 177.35713196 C1.05127037 178.95116096 1.05127037 178.95116096 0.81616211 180.57739258 C0.68229599 181.50683182 0.54842987 182.43627106 0.4105072 183.39387512 C0.00928237 185.9410704 -0.49429466 188.47147331 -1 191 C-9.25 191 -17.5 191 -26 191 C-26 185.47566019 -25.80552367 180.48658221 -25.01293945 175.09057617 C-24.85368091 173.95938795 -24.85368091 173.95938795 -24.69120502 172.80534744 C-24.33717573 170.30043978 -23.97524081 167.79674178 -23.61328125 165.29296875 C-23.35664801 163.48892405 -23.10050646 161.68480935 -22.84481812 159.88063049 C-22.15148007 154.99830718 -21.45128847 150.11698886 -20.7498436 145.23582458 C-20.01714006 140.12881438 -19.2907694 135.02090367 -18.5637207 129.91308594 C-17.18696638 120.24769314 -15.80453519 110.58312125 -14.42005253 100.91883278 C-12.84372921 89.91343873 -11.27375196 78.90714235 -9.70430183 67.90076637 C-6.47658484 45.26616795 -3.24091723 22.63271185 0 0 Z M22 23 C20.95045169 30.42319194 19.90688883 37.84720491 18.87078857 45.27228546 C18.38941021 48.72067564 17.90603794 52.16876086 17.41796875 55.61621094 C16.85589267 59.5870539 16.30274332 63.55909708 15.75 67.53125 C15.57500977 68.75863892 15.40001953 69.98602783 15.21972656 71.25061035 C14.39472392 77.22876706 13.79099065 82.96485489 14 89 C21.07995205 89.10196962 28.15971257 89.17170349 35.24023438 89.21972656 C37.64557981 89.23976034 40.05087703 89.26699522 42.45605469 89.30175781 C45.92655378 89.35063808 49.39640526 89.37305205 52.8671875 89.390625 C53.93113739 89.41127014 54.99508728 89.43191528 56.09127808 89.45318604 C67.21375697 89.45647954 75.99355804 85.73691817 84 78 C90.67221107 70.14642487 92.5940285 59.99204296 92.28125 49.91796875 C91.34481135 40.20241781 87.66879937 32.85683426 80.125 26.625 C72.89577773 22.86580442 65.91059556 22.72128181 57.9375 22.8046875 C56.90560547 22.8075174 55.87371094 22.81034729 54.81054688 22.81326294 C51.54024268 22.82438748 48.27022032 22.84947774 45 22.875 C42.77213939 22.88503978 40.54427446 22.89416388 38.31640625 22.90234375 C32.87750929 22.92430145 27.43877479 22.9577014 22 23 Z " fill="#736B2D" transform="translate(1363,47)"/>
<path d="M0 0 C42.57 0 85.14 0 129 0 C128.01 7.59 127.02 15.18 126 23 C108.84 23 91.68 23 74 23 C73.01773438 30.33992188 72.03546875 37.67984375 71.0234375 45.2421875 C67.33698725 72.68059057 63.53678043 100.10257169 59.69091797 127.51904297 C58.78313711 133.99178797 57.88005286 140.46518019 56.97786903 146.93870735 C56.27337277 151.98824037 55.56575096 157.03733163 54.8572197 162.0862999 C54.52194648 164.47923582 54.18782965 166.87233407 53.85490799 169.2655983 C53.39697491 172.55530624 52.93466336 175.8443693 52.47119141 179.13330078 C52.26866257 180.59894974 52.26866257 180.59894974 52.06204224 182.09420776 C51.93615723 182.98102234 51.81027222 183.86783691 51.68057251 184.78152466 C51.57259653 185.55281771 51.46462055 186.32411076 51.35337257 187.11877632 C51 189 51 189 50 191 C41.75 191 33.5 191 25 191 C26.12500983 177.49988204 26.12500983 177.49988204 26.9107666 171.90274048 C27.08739334 170.63279236 27.26402008 169.36284424 27.44599915 168.05441284 C27.63906556 166.69072579 27.83219822 165.32704811 28.02539062 163.96337891 C28.23109358 162.49357 28.43650396 161.02372012 28.64164734 159.55383301 C29.19441154 155.59929454 29.7512769 151.64534378 30.30897331 147.69149828 C30.89405221 143.53866579 31.47542586 139.38531451 32.05725098 135.23202515 C33.03351504 128.26683901 34.01223021 121.30200105 34.99267578 114.33740234 C36.24990664 105.4066006 37.50334614 96.4752712 38.75550079 87.54375648 C39.83487254 79.84468873 40.91565942 72.14581974 41.99683952 64.44700575 C42.22827943 62.7988596 42.45967509 61.15070724 42.69102669 59.50254869 C43.35001115 54.80801598 44.00975388 50.1135912 44.67075539 45.41934204 C44.87055738 43.99961371 45.07010272 42.57984923 45.26936913 41.16004562 C45.54193332 39.21838122 45.81555879 37.27686587 46.0892334 35.33535767 C46.24187401 34.25032267 46.39451462 33.16528767 46.5517807 32.04737282 C46.99621994 29.02570003 47.49789544 26.01262737 48 23 C31.17 23 14.34 23 -3 23 C-2 11 -2 11 0 0 Z " fill="#000000" transform="translate(645,47)"/>
<path d="M0 0 C5.34176938 5.34176938 6.24902412 11.05632972 6.26069641 18.38729858 C6.26452196 19.10956937 6.26834751 19.83184016 6.27228898 20.57599795 C6.28256889 22.98482238 6.27863642 25.39340621 6.2746582 27.80224609 C6.27900747 29.53397338 6.28419134 31.26569875 6.29014587 32.99742126 C6.30352449 37.69375606 6.30411577 42.39001032 6.30158257 47.08636045 C6.30051202 51.01024733 6.30539844 54.93411796 6.310188 58.85800135 C6.32127941 68.11726068 6.32172275 77.37647943 6.31567383 86.63574219 C6.30963452 96.1799273 6.32194481 105.72396498 6.3432439 115.26812494 C6.36087192 123.4695865 6.36685933 131.67100118 6.36360615 139.87248099 C6.36179495 144.76765237 6.36441315 149.66271859 6.37832069 154.55787277 C6.39091381 159.16260726 6.38894089 163.7671123 6.37590981 168.37184334 C6.37354765 170.05844895 6.37626576 171.74507079 6.38453293 173.43165779 C6.45761316 189.50409993 6.45761316 189.50409993 3 196 C0.3125 198.5 0.3125 198.5 -2 200 C-5.84191858 198.9328004 -8.09380795 197.45914238 -10.16189957 193.99091339 C-14.04544804 184.76551707 -13.28765845 173.87197257 -13.25878906 164.04882812 C-13.26150542 162.48033995 -13.26506995 160.91185305 -13.26940918 159.34336853 C-13.27845879 155.11816921 -13.27501987 150.89306851 -13.26865101 146.66786766 C-13.26355226 142.22523121 -13.26829316 137.78260264 -13.27142334 133.33996582 C-13.27505176 125.88239034 -13.27029349 118.42485459 -13.26074219 110.96728516 C-13.24985982 102.37170174 -13.25338619 93.77621324 -13.264395 85.18063211 C-13.2735 77.77218777 -13.27473749 70.36377183 -13.26951766 62.9553237 C-13.26641558 58.54304037 -13.26593978 54.13080151 -13.27259064 49.71852112 C-13.27841043 45.56843737 -13.27428334 41.41847481 -13.26280212 37.26840401 C-13.26018013 35.75440738 -13.26087796 34.24040037 -13.26532745 32.726408 C-13.328842 8.89993406 -13.328842 8.89993406 -7 0 C-4.20824656 -1.39587672 -2.93876905 -0.97958968 0 0 Z " fill="#000000" transform="translate(1540,43)"/>
</svg>
