<?xml version="1.0" encoding="UTF-8"?>
<!DOCTYPE svg PUBLIC "-//W3C//DTD SVG 1.1//EN" "http://www.w3.org/Graphics/SVG/1.1/DTD/svg11.dtd">
<svg xmlns="http://www.w3.org/2000/svg" version="1.1" width="512px" height="512px" style="shape-rendering:geometricPrecision; text-rendering:geometricPrecision; image-rendering:optimizeQuality; fill-rule:evenodd; clip-rule:evenodd" xmlns:xlink="http://www.w3.org/1999/xlink">
<g><path style="opacity:0.972" fill="#000000" d="M 243.5,36.5 C 293.098,34.0369 328.598,55.0369 350,99.5C 355.4,113.667 357.9,128.334 357.5,143.5C 369.505,143.333 381.505,143.5 393.5,144C 408.325,148.158 417.825,157.658 422,172.5C 428.571,260.666 435.071,348.833 441.5,437C 439.866,456.633 429.533,468.967 410.5,474C 307.167,474.667 203.833,474.667 100.5,474C 81.4674,468.967 71.1341,456.633 69.5,437C 75.9286,348.833 82.4286,260.666 89,172.5C 93.2018,157.632 102.702,148.132 117.5,144C 129.495,143.5 141.495,143.333 153.5,143.5C 152.66,95.3274 174.326,61.8274 218.5,43C 226.842,40.3323 235.176,38.1657 243.5,36.5 Z M 246.5,69.5 C 286.441,67.9627 311.941,86.296 323,124.5C 324.107,130.787 324.607,137.12 324.5,143.5C 278.5,143.5 232.5,143.5 186.5,143.5C 187.578,103.283 207.578,78.6167 246.5,69.5 Z M 126.5,175.5 C 135.833,175.5 145.167,175.5 154.5,175.5C 154.497,203.511 154.331,231.511 154,259.5C 158.073,269.788 165.573,273.621 176.5,271C 181.147,268.894 184.314,265.394 186,260.5C 186.5,232.169 186.667,203.835 186.5,175.5C 232.5,175.5 278.5,175.5 324.5,175.5C 324.333,203.835 324.5,232.169 325,260.5C 330.479,271.806 338.979,274.639 350.5,269C 353.869,266.635 356.036,263.468 357,259.5C 357.5,231.502 357.667,203.502 357.5,175.5C 366.506,175.334 375.506,175.5 384.5,176C 388.601,176.775 390.434,179.275 390,183.5C 395.884,267.882 402.051,352.215 408.5,436.5C 407.872,438.258 406.872,439.758 405.5,441C 305.5,441.667 205.5,441.667 105.5,441C 104.128,439.758 103.128,438.258 102.5,436.5C 108.857,350.504 115.357,264.504 122,178.5C 123.409,177.219 124.909,176.219 126.5,175.5 Z"/></g>
</svg>
